<mxfile host="Electron" agent="Mozilla/5.0 (Macintosh; Intel Mac OS X 10_15_7) AppleWebKit/537.36 (KHTML, like Gecko) draw.io/26.0.9 Chrome/128.0.6613.186 Electron/32.2.5 Safari/537.36" version="26.0.9">
  <diagram id="Ubt5MAC1gTpTK-kHjvWl" name="MLOps">
    <mxGraphModel dx="1240" dy="668" grid="1" gridSize="10" guides="1" tooltips="0" connect="1" arrows="1" fold="1" page="1" pageScale="1" pageWidth="1100" pageHeight="850" math="0" shadow="0" adaptiveColors="auto">
      <root>
        <mxCell id="0" />
        <mxCell id="1" parent="0" />
        <mxCell id="18IOrFxBGaxqaIelFwtQ-10" value="Pool" style="swimlane;childLayout=stackLayout;resizeParent=1;resizeParentMax=0;startSize=20;horizontal=0;horizontalStack=1;hachureGap=4;fontFamily=Verdana;fontColor=none;noLabel=1;fontSize=11;flipV=1;flipH=0;container=0;dropTarget=1;connectable=1;expand=1;editable=1;movable=1;resizable=1;rotatable=1;deletable=1;locked=0;allowArrows=1;swimlaneLine=0;rounded=0;" parent="1" vertex="1">
          <mxGeometry x="10" y="121" width="1040" height="549" as="geometry" />
        </mxCell>
        <mxCell id="18IOrFxBGaxqaIelFwtQ-11" value="Source Systems" style="swimlane;startSize=20;hachureGap=4;fontFamily=Verdana;fontSize=14;rounded=0;" parent="18IOrFxBGaxqaIelFwtQ-10" vertex="1">
          <mxGeometry x="20" width="200" height="549" as="geometry" />
        </mxCell>
        <mxCell id="TZKYVmtA_0dDknvJQn4o-2" value="" style="image;aspect=fixed;html=1;points=[];align=center;fontSize=12;image=img/lib/azure2/databases/SQL_Database.svg;sketch=1;hachureGap=4;jiggle=2;curveFitting=1;fontFamily=Verdana;rounded=0;" parent="18IOrFxBGaxqaIelFwtQ-11" vertex="1">
          <mxGeometry x="20" y="109" width="60" height="80" as="geometry" />
        </mxCell>
        <mxCell id="TZKYVmtA_0dDknvJQn4o-5" value="Files" style="image;aspect=fixed;html=1;points=[];align=center;fontSize=12;image=img/lib/azure2/general/Files.svg;sketch=1;hachureGap=4;jiggle=2;curveFitting=1;fontFamily=Verdana;rounded=0;" parent="18IOrFxBGaxqaIelFwtQ-11" vertex="1">
          <mxGeometry x="16" y="259" width="64" height="70" as="geometry" />
        </mxCell>
        <mxCell id="TZKYVmtA_0dDknvJQn4o-7" value="NoSQL" style="shape=image;verticalLabelPosition=bottom;labelBackgroundColor=default;verticalAlign=top;aspect=fixed;imageAspect=0;image=https://icon-library.com/images/no-sql-icon/no-sql-icon-17.jpg;clipPath=inset(22.14% 29.64% 22.14% 29.29% round 5%);fontFamily=Verdana;rounded=0;" parent="18IOrFxBGaxqaIelFwtQ-11" vertex="1">
          <mxGeometry x="110" y="169" width="60" height="81.39" as="geometry" />
        </mxCell>
        <mxCell id="9ZaJt1_ey6kXlcGl8Kuq-1" value="&lt;font face=&quot;Verdana&quot;&gt;Stream&lt;/font&gt;" style="verticalLabelPosition=bottom;aspect=fixed;html=1;shape=mxgraph.salesforce.stream;hachureGap=4;fontFamily=Architects Daughter;fontSource=https%3A%2F%2Ffonts.googleapis.com%2Fcss%3Ffamily%3DArchitects%2BDaughter;rounded=0;" parent="18IOrFxBGaxqaIelFwtQ-11" vertex="1">
          <mxGeometry x="110" y="339" width="60" height="60" as="geometry" />
        </mxCell>
        <mxCell id="l5XGKFsh0KQZhv6o5uQi-28" value="" style="shape=flexArrow;endArrow=classic;html=1;rounded=1;hachureGap=4;fontFamily=Architects Daughter;fontSource=https%3A%2F%2Ffonts.googleapis.com%2Fcss%3Ffamily%3DArchitects%2BDaughter;flowAnimation=1;strokeWidth=4;width=50;verticalAlign=middle;" parent="18IOrFxBGaxqaIelFwtQ-11" edge="1">
          <mxGeometry width="50" height="50" relative="1" as="geometry">
            <mxPoint x="120" y="70" as="sourcePoint" />
            <mxPoint x="250" y="70" as="targetPoint" />
          </mxGeometry>
        </mxCell>
        <mxCell id="l5XGKFsh0KQZhv6o5uQi-29" value="&lt;font face=&quot;Verdana&quot; style=&quot;font-size: 14px;&quot;&gt;ETL&amp;nbsp;&lt;/font&gt;&lt;font style=&quot;background-color: light-dark(#ffffff, var(--ge-dark-color, #121212)); color: light-dark(rgb(0, 0, 0), rgb(255, 255, 255)); font-size: 14px;&quot; face=&quot;Verdana&quot;&gt;or&amp;nbsp;&lt;/font&gt;&lt;span style=&quot;color: light-dark(rgb(0, 0, 0), rgb(255, 255, 255)); font-size: 14px; font-family: Verdana; background-color: light-dark(#ffffff, var(--ge-dark-color, #121212));&quot;&gt;ELT&lt;/span&gt;" style="edgeLabel;html=1;align=center;verticalAlign=middle;resizable=0;points=[];sketch=1;hachureGap=4;jiggle=2;curveFitting=1;fontFamily=Architects Daughter;fontSource=https%3A%2F%2Ffonts.googleapis.com%2Fcss%3Ffamily%3DArchitects%2BDaughter;" parent="l5XGKFsh0KQZhv6o5uQi-28" vertex="1" connectable="0">
          <mxGeometry y="11" relative="1" as="geometry">
            <mxPoint y="11" as="offset" />
          </mxGeometry>
        </mxCell>
        <mxCell id="fBvspUXEwRoK4l-hfZGB-2" value="&lt;font face=&quot;Verdana&quot;&gt;External APIs&lt;/font&gt;" style="image;aspect=fixed;html=1;points=[];align=center;fontSize=12;image=img/lib/azure2/web/API_Center.svg;sketch=1;hachureGap=4;jiggle=2;curveFitting=1;fontFamily=Architects Daughter;fontSource=https%3A%2F%2Ffonts.googleapis.com%2Fcss%3Ffamily%3DArchitects%2BDaughter;" parent="18IOrFxBGaxqaIelFwtQ-11" vertex="1">
          <mxGeometry x="30" y="439" width="68" height="68" as="geometry" />
        </mxCell>
        <mxCell id="18IOrFxBGaxqaIelFwtQ-12" value="Data Systems" style="swimlane;startSize=20;hachureGap=4;fontFamily=Verdana;fontSize=14;rounded=0;" parent="18IOrFxBGaxqaIelFwtQ-10" vertex="1">
          <mxGeometry x="220" width="200" height="549" as="geometry" />
        </mxCell>
        <mxCell id="TZKYVmtA_0dDknvJQn4o-3" value="Data Warehouse" style="image;aspect=fixed;html=1;points=[];align=center;fontSize=12;image=img/lib/azure2/databases/Azure_SQL_Server_Stretch_Databases.svg;sketch=1;hachureGap=4;jiggle=2;curveFitting=1;fontFamily=Verdana;rounded=0;" parent="18IOrFxBGaxqaIelFwtQ-12" vertex="1">
          <mxGeometry x="50" y="90" width="64" height="65" as="geometry" />
        </mxCell>
        <mxCell id="BfBG_LyYBdXH_Td8mh9d-9" value="&lt;font face=&quot;Verdana&quot;&gt;Data Lake&lt;/font&gt;" style="sketch=0;outlineConnect=0;fontColor=#232F3E;gradientColor=none;fillColor=#8C4FFF;strokeColor=none;dashed=0;verticalLabelPosition=bottom;verticalAlign=top;align=center;html=1;fontSize=12;fontStyle=0;aspect=fixed;pointerEvents=1;shape=mxgraph.aws4.data_lake_resource_icon;hachureGap=4;jiggle=2;curveFitting=1;fontFamily=Architects Daughter;fontSource=https%3A%2F%2Ffonts.googleapis.com%2Fcss%3Ffamily%3DArchitects%2BDaughter;rounded=0;" parent="18IOrFxBGaxqaIelFwtQ-12" vertex="1">
          <mxGeometry x="10" y="195" width="68" height="68" as="geometry" />
        </mxCell>
        <mxCell id="BfBG_LyYBdXH_Td8mh9d-10" value="&lt;font face=&quot;Verdana&quot;&gt;Lake formation&lt;/font&gt;" style="sketch=0;points=[[0,0,0],[0.25,0,0],[0.5,0,0],[0.75,0,0],[1,0,0],[0,1,0],[0.25,1,0],[0.5,1,0],[0.75,1,0],[1,1,0],[0,0.25,0],[0,0.5,0],[0,0.75,0],[1,0.25,0],[1,0.5,0],[1,0.75,0]];outlineConnect=0;fontColor=#232F3E;fillColor=#8C4FFF;strokeColor=#ffffff;dashed=0;verticalLabelPosition=bottom;verticalAlign=top;align=center;html=1;fontSize=12;fontStyle=0;aspect=fixed;shape=mxgraph.aws4.resourceIcon;resIcon=mxgraph.aws4.lake_formation;hachureGap=4;jiggle=2;curveFitting=1;fontFamily=Architects Daughter;fontSource=https%3A%2F%2Ffonts.googleapis.com%2Fcss%3Ffamily%3DArchitects%2BDaughter;rounded=0;" parent="18IOrFxBGaxqaIelFwtQ-12" vertex="1">
          <mxGeometry x="110" y="235.5" width="78" height="78" as="geometry" />
        </mxCell>
        <mxCell id="l5XGKFsh0KQZhv6o5uQi-4" value="" style="group" parent="18IOrFxBGaxqaIelFwtQ-12" vertex="1" connectable="0">
          <mxGeometry x="20" y="319" width="78.34999999999997" height="73" as="geometry" />
        </mxCell>
        <mxCell id="l5XGKFsh0KQZhv6o5uQi-3" value="&lt;font face=&quot;Verdana&quot;&gt;Data Mesh&lt;/font&gt;" style="image;sketch=0;aspect=fixed;html=1;points=[];align=center;fontSize=12;image=img/lib/mscae/Data_Lake.svg;hachureGap=4;jiggle=2;curveFitting=1;fontFamily=Architects Daughter;fontSource=https%3A%2F%2Ffonts.googleapis.com%2Fcss%3Ffamily%3DArchitects%2BDaughter;" parent="l5XGKFsh0KQZhv6o5uQi-4" vertex="1">
          <mxGeometry width="55.48" height="73" as="geometry" />
        </mxCell>
        <mxCell id="l5XGKFsh0KQZhv6o5uQi-2" value="" style="points=[];aspect=fixed;html=1;align=center;shadow=0;dashed=0;fillColor=#FF6A00;strokeColor=none;shape=mxgraph.alibaba_cloud.petadata_hybriddb_for_mysql;hachureGap=4;fontFamily=Architects Daughter;fontSource=https%3A%2F%2Ffonts.googleapis.com%2Fcss%3Ffamily%3DArchitects%2BDaughter;" parent="l5XGKFsh0KQZhv6o5uQi-4" vertex="1">
          <mxGeometry x="21.649999999999977" y="8.450000000000045" width="56.699999999999996" height="56.1" as="geometry" />
        </mxCell>
        <mxCell id="l5XGKFsh0KQZhv6o5uQi-5" value="&lt;font face=&quot;Verdana&quot;&gt;Data Mart&lt;/font&gt;" style="image;sketch=0;aspect=fixed;html=1;points=[];align=center;fontSize=12;image=img/lib/mscae/StorSimple_Data_Managers.svg;hachureGap=4;jiggle=2;curveFitting=1;fontFamily=Architects Daughter;fontSource=https%3A%2F%2Ffonts.googleapis.com%2Fcss%3Ffamily%3DArchitects%2BDaughter;" parent="18IOrFxBGaxqaIelFwtQ-12" vertex="1">
          <mxGeometry x="123.10000000000002" y="359" width="51.8" height="70" as="geometry" />
        </mxCell>
        <mxCell id="18IOrFxBGaxqaIelFwtQ-13" value="ML Training" style="swimlane;startSize=20;hachureGap=4;fontFamily=Verdana;resizable=1;fontSize=14;rounded=0;" parent="18IOrFxBGaxqaIelFwtQ-10" vertex="1">
          <mxGeometry x="420" width="160" height="549" as="geometry" />
        </mxCell>
        <mxCell id="9ZaJt1_ey6kXlcGl8Kuq-8" value="Feature Store" style="rounded=0;whiteSpace=wrap;html=1;hachureGap=4;fontFamily=Architects Daughter;fontSource=https%3A%2F%2Ffonts.googleapis.com%2Fcss%3Ffamily%3DArchitects%2BDaughter;" parent="18IOrFxBGaxqaIelFwtQ-13" vertex="1">
          <mxGeometry x="10" y="160" width="100" height="30" as="geometry" />
        </mxCell>
        <mxCell id="9ZaJt1_ey6kXlcGl8Kuq-10" style="edgeStyle=orthogonalEdgeStyle;rounded=0;hachureGap=4;orthogonalLoop=1;jettySize=auto;html=1;entryX=0.25;entryY=0;entryDx=0;entryDy=0;fontFamily=Architects Daughter;fontSource=https%3A%2F%2Ffonts.googleapis.com%2Fcss%3Ffamily%3DArchitects%2BDaughter;exitX=0;exitY=1;exitDx=0;exitDy=0;" parent="18IOrFxBGaxqaIelFwtQ-13" source="9ZaJt1_ey6kXlcGl8Kuq-9" target="9ZaJt1_ey6kXlcGl8Kuq-8" edge="1">
          <mxGeometry relative="1" as="geometry" />
        </mxCell>
        <mxCell id="9ZaJt1_ey6kXlcGl8Kuq-13" value="read" style="edgeLabel;html=1;align=center;verticalAlign=middle;resizable=0;points=[];sketch=1;hachureGap=4;jiggle=2;curveFitting=1;fontFamily=Architects Daughter;fontSource=https%3A%2F%2Ffonts.googleapis.com%2Fcss%3Ffamily%3DArchitects%2BDaughter;rounded=0;" parent="9ZaJt1_ey6kXlcGl8Kuq-10" vertex="1" connectable="0">
          <mxGeometry x="0.2364" y="2" relative="1" as="geometry">
            <mxPoint as="offset" />
          </mxGeometry>
        </mxCell>
        <mxCell id="9ZaJt1_ey6kXlcGl8Kuq-11" style="edgeStyle=orthogonalEdgeStyle;rounded=0;hachureGap=4;orthogonalLoop=1;jettySize=auto;html=1;fontFamily=Architects Daughter;fontSource=https%3A%2F%2Ffonts.googleapis.com%2Fcss%3Ffamily%3DArchitects%2BDaughter;exitX=0.75;exitY=1;exitDx=0;exitDy=0;entryX=0.83;entryY=-0.133;entryDx=0;entryDy=0;entryPerimeter=0;" parent="18IOrFxBGaxqaIelFwtQ-13" source="9ZaJt1_ey6kXlcGl8Kuq-9" target="9ZaJt1_ey6kXlcGl8Kuq-14" edge="1">
          <mxGeometry relative="1" as="geometry">
            <mxPoint x="130" y="220" as="targetPoint" />
          </mxGeometry>
        </mxCell>
        <mxCell id="9ZaJt1_ey6kXlcGl8Kuq-9" value="" style="shape=image;verticalLabelPosition=bottom;labelBackgroundColor=default;verticalAlign=top;aspect=fixed;imageAspect=0;image=data:image/webp,UklGRtQ7AABXRUJQVlA4WAoAAAAMAAAArgQApAEAVlA4IBA6AADwPwGdASqvBKUBPm02l0kkIyKhIdWZaIANiWVu9TSvMcHIbTRozsTt/z39x/bfv6NGeC/wf7Of1n3hq2/V/7l+l/6j+5ny9/2f2q+UXW3+5/tnprea/s//H/tH+F/bX5r/2P/Wf3r/AfCD9Ff6T8//oB/Tn/ff2v/Ee0R+4vuQ/cf1A/0j+zfst/w/h+/0v/n/unul/wH+y/aP/S/IB/Wv9f///+P2k/7h///3A/5R/m///7QH/U/cz/7fKP/VP+N+3v/y95////8H3AP//6gH//6zfrb/qv8F3Qf5T/C/jb1H/t/8a19O1P+XffX9z65/7nvj4Bf49/Sd4XAD3lP0nnJ9p/+x/e/gC/VX/dcd5677AP8X/tX/v/z3vB/7PlC+xfYX6UnovftUJ/JrUW59QQ+oIfUEPqCH1BD6gh9QQ+oIfUEPqCH1BD6gh9QQ+oIfUEPqCH1BD6gh9QQ+oIfUEPqCH1BD6gh9QQ+oIfUEPqCH1BD6gh9QQ+oIfUEPqCH1BD6gh9QQ+oIfUEPqCH1BD6gh9QQ+oIfUEPqCH1BD6gh9QQ+oIfUEPqCH1BD6gh9QQ+oIfUEPqCH1BD5E1JjrcxRsvHLrdxgwYMEyuFAuedZC1/7g5EODbLz/wuTWotz6gh9QQ+oIfUEPqCH1BD6gh9QDCcUnVHEhv8G8cLlv5bwoNbcConqlDg2y8/8Lk1qLc+oIfUEPqCH1BD6gh9QQ+oIc5TpH1iQvQKwzIhbvhIoXAtZ1sbgErK59lnNWdnldOHdkKkqRPe9gliOlDg2y8/8Lk1qLc+oIfUEPqCH1BD6gh9QQ+oH+tx4ZICcFG0PQ0ZiehOX4t3rYT5k7QJmp3q8S/W4T1vK+CRzgv9u+veKKfRLhSqJRXNT/wuTWotz6gh9QQ+oIfUEPqCH1BD6gh9QQ+mmeykiBTyeaOOe7tuTxvW19ILvnWpDBPeALT+VXOXARRfWP3Q4Xolya1FufUEPqCH1BD6gh9QQ+oIfUEPqCH1BDrOJ5b8UKYnBlf4ho49Xxf808TTUd011bhuOaox9RucELFOh5WHVeXJrUW59QQ+oIfUEPqCH1BD6gh9QQ+oIfUEPkni3dDxZyJbhavdRJgQ/+mEyqIdHMMT/7+6gOFE//v3P5CVTj1uxwSIFfbNwdmIqr6g6abGvp1JhTHcUiEVROfAzKYaHhzHyILZZfk1GW1CSKdBZef+Fya1FucuNE3xZqLdk6Z0XhRTzCrCSi29/UeWulDg2rNWFJVJDLvuuyeDqgkMLXuRBTQYNKtxfCriqxtRJ04ooFR+NEAFioKr4JCQkff5zxLjKK1ixIB+ntujM7TY1Fgko3Pt7Se0P0/AqDWtHyzjyxQqOGkyoBk9ipsjpp062Y3RzN9AE/QARKDKMY2jYcx94a2Pem3IletPDbW/pK7tOhjYk9LoCQLPhqvsHXiU7NGS2qEDP15xFb1U2c40S3WDVa249lAp7V4/kqWAFT8nONk5NR825C3x0kztsusRMtPXjRsOGi4Uu30lt1iLbMF0QohfuGg7zSGyqpa65HeWRJft6uDeUyqQwiV8DTaWbQ7mboMs7lxVSeFPhP1CfIG/3a6u/RvOQIhkDMtr6b53+lYHQPS1gzPNpWvd1byyUh/tXtfI///cKfmL82oiKMBIILicGfz2qTvj1V/TeVn4cUa2SWwSbnYslz2FJtWvAiLZTY7yIt2Eeld9jozf9AbIDDkNCQZ9cgOF9n/9rIT5G15yaLfq016Yel/Al+KYQQfvXIGYE1iAloRDzAGKG4/U2CrlMYyLTTxl2rf/Y+q5IiLBYxnJ2CYf4OY1rNj3bhvOi7ThXbOIHQ+JpIKEv0+MqNCRwirztw+dBvjRcnncdiSHfFGXQRmcVQ/BoGPd5WUQZNU4muLH4+zdBs7oX0jIxm/zomzb1E9MicWRFFrs3gWQuFSrKT/TbsKjXsEeq7YhvAVaYmNe80CLm/MB3lGDsFEWPugv0PkZH3RtjPaFefxDeoy9GE6QZrKvToZtnnFZzBSsg4Er9KyUT9AMEL2+6tYyeu1U4LRAWt6HJPg27+oPeGdlUMhbcK2Ek7OkMTc4p2hzZwwU2whnRZIt8vtXe93SX5hFuiGP2MHXJ8qdF4UfJTc6qI02cV8skVbDWT/f0IOmCvuVT2ezDruK5E6H1jKtXOJzO5zFWYgfg+omsYQtq0bX287+/tWmXTw+zIYZTAcrqxdWXm2brGouyd+Ud5yEl1XVxaUyPtFSHsdMl7VNKp/BxvbpeXaNpc1e73hUKIOhPg1UgjL6qu5VNFpcjIOd+I5JtI+WhaKWXZmlhIk986umD7NBNkrCSa+MmWl5kFuLiweEwVXe8LruhfPSz/Aoz6j/VcVc7NHJPo6ljC7mSgG8Wd7Vmwf0qLx/+i3JIdhYb7Jr1CgS/B090JCSlQB/u8TcA+Ngzrkz1ddTjqDLg5OPgHTOpNKqdD0UfwhkPjZt3zTlfMxRsT9Dtns7mDfMHZaAUx67E4Gewc38sPgwQ+Str+MZpu8RqORi3ZLzT2qC+kafS/fhsPuIW6xbcRbgDgK6VxASwuJD4wj2b/XHsrjUXO5DluLGsC9qYkTn5e8YBkFHWvYJmp2NIAA7JTlqyhkIyY7sQEVhbpOjAiMUwvwIAb60tgYpQsWwlPIiavJd/Z8hOa/jyep2We/rD3kuaIOLQ+KyNcLMwzqcQLONYvfOQSsUFAZi4SS+9GV2FzSLLgv+i9u5sjuG3wOYx0Uk1/AxXkvky9r7s+xPgAhNDzLBgBcn38NXzpeAe0ElFugDeGiJdTWqu9Lk1qZC4P/Cjmg3FQ8ZOJBD6aJWjN2x0V5X0JqMQYfUEPqCIA3ek/8Lk1qLc+oIfUEPqCH1BD6gh8lDjeO/Oi8Lk1gs0EdkKeOLMZBL564ufUEPqCH1BD6gh9QQ+oIfUEPqCH1BD6gh9QP+NyEsYiit73x0huMnCBAgQID/9kcYAY/Yc9r9vqs5AgHHcNz6gh9QQ+oIfUEPqCH1BD6gh9QQ+oIfUEOfgfudOK/f6Tv/8/7CKGXPnz58+fPiz+rKzaxSqvBAuMh7utRbn1BD6gh9QQ+oIfUEPqCH1BD6gh9QQ+oIdCHB2e27JY3vu6ZrDHzZwVwEYnDReFya1FufUEPqCH1BD6gh9QQ+oIfUEPqCH1AMz155a3D58+fPnjFmcIfFw593ypRbn1BD6gh9QQ+oIfUEPqCH1BD6gh9QQ+oIfUEPrqODbLz/wuTWotz6gh9QQ+oIfUEPqCH1BD6gh9QQ+oIfUEPqCH1BD6gh9QQ+oIfUEPqCH1BD6gh9QQ+oIfUEPqCH1BD6gh9QQ+oIfUEPqCH1BD6gh9QQ+oIfUEPqCH1BD6gh9QQ+oIfUEPqCH1BD6gh9QQ+oIfUEPqCH1BD6gh9QQ+oIfUEPqCH1BD44AA/v5jgAAAAAAAAAAAAAC951bHhVA5SoXJuskLdGKK7iZmN9P6yYmBIHKdThdyA9a10To2cD5xMBqIDUdqQCAuNXQtQ2lN7a61Jxe/Gj4HNewsflMfsJ+fHWiBoGVnBS7v/x+wQ6OpUWM5LDe9v0286q4l1IwPcNHcsoHeEWy5FwujF+MM/moM2+jrb26nroGBXpv7riSnNrZdfXAAPOz1DvYxV/s4AeI0CWYrisiOsw7osyTu+ohKsR7+2gZDnDZLX/J5oAPWG3cgj/yZTOVK4TRzf+kzxYHkXYBcg3nfgKGyGgCvzdt0AAIyla1Cxeb88gODbxdxBklWAZ5wnL9QPRmE5+jxn7+NmAMi2+XH3UlJNi6Jnpsr33Yol6UT69gUyDNaJIUIU5saeaQaIEuPMHkqQPD28MjEMy2Juhxhs//eRVcIu+HBa/RJXlJ03alIQyXMB31xuJ2NjlCBkIzV2NeDZYPuUzv303tGN2GANSh8/+O7ObaZ4xPSariHajfE+Sak2ObiP9tHbXtJtTA1KxO7l3/0qPTRmc6MiR49Q4V8e57tet22u3rxAy0aMKeTv/ujzBHbZoqFeFLrped/7aUfUNLamfZqI2IUyhljGWe4SHrTvtheMyLCSDP3vDBrTEgGA1oZuCUi04Il8Ea2wF++XOyFqTOBHzh5Tkiqf42FZ3+7LNdqV6tOjsACHl9sG+i/CccU1pISG8dUfv8Z6QqcFJ4yAsjZ1vDywepXyWxjOt8n/EdYCbaoioO9KQQVr2o0jcbDRiQkjCcrxApx8rFiq2YYYecqgsEzz1DNf0i4vm0yvkfhciHfLZOEh/MlVEca/s6abqdfg/LFEwfQaeVo+JZuxveFfJ8g5DEv8CC8xdcmb5UPNACG8tyVqkzx+a4a5JOj5Shhsz5UMg6XPifLRgwo9GWydTasvibhdasLBzAeE+K58eIEv+jFXnYuf0Cs+hD9YK1fbXbC+YEdHOjxHE7RxfOmhU7xgXX8NQhvo8JpIYbg9wDeMTBct+zsbJXl01X0veQZWDEnSMXr9wpFdY4+5ICn7pCjtiepCd4ywLSPP5Vya5yRlGmSnJ/Slp0QVCHz+R4urNsCpWdONvtfdrVdLbrKG2rL3CDaR5x0bRn+fzvWsOwWs+iReLxd4BiHWlu5ArG6MZmSXO963sa4WSww9Sv78AAoQTGFsd2mmwmZrI1W9Rdq6ZpI/ocer94ygsD94IqjmmMzZXfR/bMryi9NvRXxsI9dDAyQAKnyFyuK2/KNy9OGySzmzY8Z5ge8mVW3ZZ0SKESP35+Y0XkG68I3J/djan2ohSyzoAbKV4erNHP09t4NFTMDw2KJoER73/mBGvNEGoIKXDJ4KYLbBwmNfM3tLf4VyhEtgeMHPl8xoDVht3YLfBCgDly7sBT1S0hzR97jXb01L6jy27odGLd/W1zAKjV7mtNFNwvr8HhOEFteci/FNgmGm/YxxSJ0tz5mo7j06te+W3M5bILuHgSSq8PP8GRLf4vVNC7uvPOlRdCcr/VfuyLtGxEImqOhHiMZlp1VWEiksAc2HOfV8iz+Y44kUcqUdCeYWpbfgncPS34PnaNyL1CmuK+LJKB7LR+Wei3CVABHRHRA1PF5AAG/PbTa2LLln19WzALMgnfWcCBgTQvjp5+fZFRruvTWwcHRkUmV+UgcwuGH6f6allXNt+fX01jLWPgVc+2gX5+7pgJDz/s5vRHwEl3SUQPzCA8MXSUnnugTiL+DeWYlU2pBQiJxyiazh/d888Y7r9GnIwLL0MaRpM4ub9odvxexNhNtv2XsWo1vEt8tU0P+ZDL13G4kOoG0MfGb2owu01SqdGHA+bLQAuV1kqTCFgbhkv9CUpwxl0O35n8krJLGT164nOkSHo1td4bHWdQ13I0ltDqkIiWdcJf43fXoru4dCkJ5tZMnKmEMTz4fI0tl3It50+XYvU7jHfCV6YlJrOz6EEyUmqeP3ILFJFs3VlrrScq4mfxoRHCBIgD3pit8bAkKmF/6/lbAAXJfv4OqVuryd1s6drchdJKOY+1r8I+I7IJ2iZPseCg1JQquhRaidK23yhwe6PrD5ykcz7iAHmsoDgdlWvby6ytgAAV1QXnOY4ptlzOUk7kJy7cr3LhpblcyBBXyycwDMsgz0aoHz8q5pCfBbP3jGsh3tyLmktneYN4CJtJhXkUUuJq53DpxMy3pTo8nUSvvcm3OpQ6NePyK2/boEr7aGCJ2McMT8lIaXodi8QGMR9CCMaa60HDFABEluHWRJIebZS4HRHXXEN5cNN8vAtqPMBVDrDItzYyxAcFuTMGXkmHJJvuDM+HlRVxS2KbA+XZyMQ++xV6v5ryKwCuVfDdFvWT0t4FrkgehPK+qkkvH1c1DCfSdp7itZK8JRGapLw9/VTvHFvRfu8xkypJ1OR5eXMvaiVzV29ccApOxZJddAHkCQeRYLYB7Ma2ITUx6aFEkhHWYH9mTuG8oKFy6c6SNpvOAQJ9KwHqayRTzhZrKpj0LRbNKMEeIaBgja5z+yAvoosQJaSziOXtPiO1ZCy7WpPKItxtQdyNnNEy4cBwxsaZDAzpwCWdHc4qH/Qlm784rBAebYNOZhpdqePnZX2Zz5zG2sFGLm8rYqPrI4kVIKjrVyzA9bmMd6vLP0BUmgzp+rojHDsLlIT9/dVNI8oiDgZWj48q4UOj92cVTQZwivn/0y8a+9/WPvvXFw57xBaxka7cM4vKQDPD4qRX+9a3MSJvzmFiLkoug3BXv3QdldcKxc6oEQBtG/THue//576Oe2noq/6+lSGCJOYX5AzclXDr4v23Nox1Lmb8hYDOIRp73BVKK9+a0jDiEHf4QujSGdYYxBONFO9o2I74c0pwwUsp/0l8hLVQ6T2RvlhLS5pBlY58FvAr8TfGmueovm7OLx0BnaVaUuDTFlMaZTuL8T0oQTrDkT/27yDbntSzRXb6PrRaiDmfap7l4WVDs3Zv50AcVq+2RIHOmfP0QE4EHwFXl1EcDMunDuTuqjCcXDau9aou3qDYmnCIjPARQLNFoDMQKXAcltuo8yMEbnOgDDAGKNc/6e7tGjvcFB/tTmwtcMYYujbcje/Ll5au4WA/9JploBAjWCMA/3sXw2+tLFMAa5cpFQbzjqB2stTDlR6X3AFx7mogcy57t/6xfMmaWPlsATXlMBw6fSq7noV2x7ERePlqDAL3WlBPjf9zT0KSgEQJwVFOTkP7qZYN9SDzO5igEtwOkWLnr6WqkUwLQwj0ND8og7NCJqg3a5r8BBrk8le8eXPI8YBYNQoNJZaG9cX/UGcigviqmqCqcN9KC7mfF27uudP5sCwrNZvFSiUVpt4PWBPJt1Oa/csC68xmeh2AXm/Jxxn2CDD3sImIiNHnSzyWcGjTMyLFUlZGC37n+fB/vKOwUh69bPIPWYFk4+/w493/PNVFv/RrN/fCedJ9roPuMJ+PiIp2micPQ5byxMhxB1ZICWE9uUZFtmOd2baCQO26Cu41Qc6xkZD0PwS/xU6dbKZmkFttULbqs3fgxItRT91ysYmg70/uzgzdcqldmSTJo9TFTDY6YhRFfheQaLIg+L+wckvuxLvG/DlWkZfjpl5SqPkch/YYjl6KNx6+pLbOgVupboJIts0aILpW2bjLn/+0bp3oMlvk5xwMD3I4kr81O5evP7Pt6cu1P+5svled6xGM1Q96sw/2TBgy5sU2t/vVkBaM0cz3VYvayzGNmZ7Y9pSDrxCkdHILxeO8omFyNrbYPo/0AEkIzyxcGtT7IDO6F9vHCggWL52CcS6z6ItIzuOPlueHFBgwicYe6+Y5KGEeI6i4F2xLgDzvdJTztk8S5bIRACBZPcf+7zk/HWPvDeYFfWxoRwDKm+W9Ccy+RvKCmSFScJeTPSP2ktz9CliSLmtB7sFZwqO49wrKxgDg2exP3EXm+LrLgRYo6QQhnKcwl/MNaPqKOLdv61Q9PixLUR8lsLVGh+ONUh2HmzdHhXPmQfV9swZrR9x1z8tJohzPjVggDN2OkGkHXUsQaApz9YLj3Ia1zzELtBKwYupWfSukzDVqC7ylPnWd5rVoWbQ4i+FgJkDfLE8O9YHDVqGEGQ4/oDZwRDPH145On4EwWwO9/bOHjfyK097ADen2ijmt9+lEQijrId+PM6TX8Y/535sN+gXH9W6nQgA9Mer/gyWsLxN1XATbrcCHp7TirYHdaALzRkZIx4vDi7VggDGAOtYZXmuuVpCPKSR203s+wpM5k8fTbTLK/g8KlwROF6zoAgaf2NATPe+nPSVb450ixd1lVAvpxWxV3AgIlbMfHA7a+KLOwXgbOOAXKaZlVLAoYL+Kbhw+N/DZW2RcrYBW0y5ss0kuYu4lYiPYXDn8Tc7O/35/u8I0Xm7UUhnfL4V2sfbzlDJNNwlsC4P+CYuC65lnQi4A6ZOGjNLTX6EDQejX5/qPjfGGg6AEyH6mtVoJWgQ3+KMRxd54rJngJgF3KEiSEimGoJ2eIuj1kHUFvyAeoOJHv8girjxOvsqCj2F0/3lHCX2+EVgxrnbkt8XbJbLAFFg6RXP33U43Q8VjLhr4Of0CWc0GTXLTVP2NqZZFoos18zjdkbzY0A6ZXUZYhG6KjYxEyxnx446PDdKvnxyL4DHZrbDvinDPoXDS4Knos44yZ9LhBK66N4pRfAfg/AzUVAMxGu0yWQ9uwkz3a+BKZ57PhQ3BhRK4ApnMBMq4kyH7oKhyY56gtY2CL32rvAPtFbS5hRT/DBA3RiWMTmRd4M3FY3Ae5heOj0WuX64UOOicK9D3Ee2cmy5mQ71f8mY+nOnLD/Ztfrs6RXSRwxtDdSMObMok6imSjEMuCVLq6ltR4sq3oznpo2VrmOTvOAVKNiq136vkigIDfMBPThD9RYwueHQDDx6TEvXkcgHcuoetSZgdoHIYlUbp0LeZOwisBaMY8oHc029QFG4VqxCynh0irkuMV/JOdlG+XiNDR0F2fs9sNe6UhYZWGmcXTWqEqKwLdIgKF4eX3U92qEAO8mSckElsz4xNu8HMaeddjuEE4tDXZfJvXLpNBVjNjjj7n71QqcNEcdV6InmJ+vd1rP5g9Eoz0AYFwjpOy43C+oT2Ka0hEQPCrj7JnnePwtauUJ9FgezbzzbITknZIv48JBtXhwObe2RbuwuZ+BS0hJKkg7pX+5RqMIBmQd8hzBB9WwCzn5SLCjsFzEH4/LxeRTfQTzH8nreQzqrE37HG5BEdk7mOMTWfx5eXEGC/EykaVPWF7WB3tEVsDYLO7UTx/aQr+awkpE+fU/vBTzihJ0oDMLkS6QOk/+EkoV+xj1YIA0Q6SCFfRZaCVV0eMXGL53AloxLuMc3Dow3fAiax+xHKXUtlfGFZn8jwBSd5fw2H4npMLjn3s41jynYCGdoXXAunV8FGxWN337ojcNhA8J2oNnnI3R0Te0MB0SA+AKO43loI9OyjE0nAebOp4EgY8VJ8cyfV3s49eJ52uSacEIHZAms8Ltl0kjc6g9wgghvh6LokNLj0lMLm3zR+13nM8eZRby3d9MsLCNJYUikg8bmPZoRVL+vtAqXecVk7nzLOsn8X/dta4vXsS09bg1VLrDdXuYs3eGLsl3RD1KedtlE4od/cMGSFmNcwsCRF24QmiOXdy7xJ1MjeUue3bSb7QecPFoozJeG9CqEokmQnl+ZxrFhE8d4/OiwMBymkTa/ff9wfxfXULPSpqbh39GPXtOoXnQKWgo5S3AgkQvWa2shDCY/HwJ+mYIpCdq4AE85L21hLhJODQEnL6cDi7+M1Czck4MOi/OJvJ37qbjCnODgGNIG4IQOPV4LZTM9BPyaowt2D+lEAm/8x5FbihdNXKF5yc1lmYBcIqJUVBShu07+hdLQtgSBPM5AeG2ASGdfUNw6LVydmXhNv6XNGyxjMEGzORl2vQ4L7/MeOQpy41nDvrTfMW5gD/ocd2WOCdMM0FlOj0lMcn/taU2D1CVaLqadG6CNfWg7eqCzr+3OW6r51w0l3xZGs2JffqQpfLze5+/9MS4iV8fm9ltx6MZW8l0f2S2fZdscmxqYxfNwrTJaRrRVNn5MoCxCdFUKY5zRkBAapwNEDRjNG2hlqX8W+Yaw57Z+L3iLMr5lzHaS+dbd7fLNI+4lmjynN9q2jUvr4oJfkbGvZyYrW2N5EJHJU/GaYDMtg30rVwMx1Bk9KLn2u08x6ko6MUbN7bL1ckIdRxF55UtyJ2f5XzN+N14X7INtx5zBzJlRxvwO7SfA4Qs1qNfnQTq+c+BucTwpbJ9iQ2epaMjHnh6RDX/Og9+JgBHdNj184xzg6cD1Oyi1uAgzADvqnIeQZigiYHtziJkvXS9dk3eUp+EAkqjSsnCet563PMQ+S2OzhNiPwoO4Q9bfz2OG8eUlZpiuyO04sbOfGmwKXoAK/fJok/iRSxVgFGyOJmtf82Yi4RUf7CeuTwdDwmFmJ8oqu9QI01GL++IG19RNqokT0G+NUKw1iy3dX6HxJ1MmpN9UlZ3qf04dvAOMwEfUlE4gFUKL6P1srqEwnsnFDC74pZlMBWdBEKBbTKn8VFxOWl6MSbWcX/7w70uXgRhdHl6/0W+S4y9++km08FWsfh558a5FAY4eP3uJvfz5rxUUyUdvobNiEwgl7VOagJCP4K91Zzm/nWqy5u6L2Ke2AfNo6ShM7Eg1SEIEUC9jt3AgvUtZTt/lDkdndZ+I80fwbFM+gEv+YKvD0kuxEa+1ok5MGTrwCZh3KDoZdoGUF6P8kw7RCX8mHxO27qzmbPgYUTQBWO6rutOROCCSEmhgUl1TkifhyzalDFFvmJZET2dAoB228Mv1jc8jD74Pfhwoh3x4uTNnaOZkaCjYWVNjYijJSpiHf5/aTYWYpN46AMxlTYeC2Sxnq4P3IpnN5ToxpG0hbG5QQxsJehAwcyBz0bfuOXUQWeAl4/jmd1gqtSVDIuwBHEPC3uxeGgXI6sHvL2En5aQvdg+Ge9TvgawLMOFBaWPIiVIVNqHecbdAM89QmIClFsYu97A/aVvgfgqVueo7iPWzUML48yvdel/gBk8RwmSO/GaSDLQTDS5PZc/z5aK7lgUMOLw6hr7cXCnMgTSwfB8W9MOB4eN07tIWpAIGjw7bwF7i7k4sdPP5K8fFUCXKTw0q2l8zqz91khjfbZzHNsNy6RenDJ7moloumMxnJh22vzFY3V7G0EFbWRA57gEBCr1wde22bHf+7u7BkeJ3RUk7FMPM+SQR7l/qORtqhaAsXXZsb38dvpmF/LAOh+C5G2fSkXTIQBZZcMXft8ZpgJOeYHTC6USLExwbkToDJhtolhLGvW4jUKwt+LaHCm4BLalGAf8AxBbTxToa/kZbELehcIrorySvFjLDro+h7Tw5LrT6qiTkdYGXCbfB1y63O5EKD5919LVQaNYiwwLpKbRASjegXxtNzv9b+lGD+6t4sZF6jhNjt2NN20HBw7EzzJkuXIei2as+htHWibPU8YZIMX306YQ42MLtJ1KcyExpxGDLaD1qhShNwCDGbPYeQBuhDXdKbf4jnS5gvPBymdVmWNhXV9D1iw9e9oLZk67e8UwqoJ8PMppnbMdOUuS2JkdBabFiD6DyipODxj8fBULCf8T1QUrbGNSjhWjtrbrJo/DAOfJZV6DLU9yXJxaOk+9vlwszpnKtUPrefH6AY1QWYiXnu0w9JUIJ8Uzyyig4j51cw9KYInLMNMLZ5Z1BIGSHJWdlP/P2Rh4bBB2RcoS8D3qAYfN+Ubd1ey+il8bXCXhRy8XFnjlv5W+qE8/ug4l7ZhbqJUZ8P/nikYpiUpyq2tQaciJjvh+7rQaprl843GbM2XzPxbavnU5kyFCl16fNBIG5IqNfT4XhMN145BLWEcCbfDBRIOMMf/GVzxCY1eN3/qrY5RL5TH+O31qGP695F3OYiB1FWf6tmShSW1l/C0iLvmdZF6V8WC48nKk3Q1Y0p9E04omLfZcxcKcyBRyKppXK7OMPy7V2sGGHmmriUzt4oYMq9YjTssOlQyFQJ+puFLBZUQLc25xi/vAKHRND89LJAkuycM/rOGK9Jl4qgiHHxhMkZQ5S7BCC6sWmIIoFKUKE9JxMrA3yBL8QVnbgdktf2XxLOHkoxCFWq2LOCPvCz8Yxz+wLiQAXG0YW+d24zGiufmqN9IEt98EBEDynKzyHJyULMfkkGvHBIiHAiYaqb7zytdVwqRITFtHcVwC5GB/ZmAD41jnTysz0CUuSTuMVtlvB6uYklsHA44X+wMJALHCyl14bDKtIKmQT15Gybn7yIuqvLlGev76bH3PkuD16fGSMsc0OejkIGsXyY1FuSQATZRsrUgwecUXxsmOUqU9sOgcVfVF9/lWTokVnJKICN/YbHZ4NxmSSRaIgA2qstoNDMzj8LG1w1gFPuS8rczqaUENkrzWdpCREKBnbpmILRlXYG2EQstE16Zdz4yb9NfXccCW8DKOQRoAWFgFspXPdWp9W4u31iVP71zHSVjTxx9GRi4Z51sAYL+PULqqadgX9oinmFcW2UfqZZ5K0XCgJTLL4C7GM7fHpFzgPnd1X4QjIhG1xrWFTJYBcL1/OWsbLcan6629ytROst7k+4aeulDBBuQOOQTgFrYXK3HGuLlw9jBglj8lyHa/AwOmQt46GL7KBYz25Fb70EqBDhpda2k3oUBbMTRLxE1VSV5tbrJCWzUwHUH/hrYR9V8mYS6+PB8HWrP4E8H8ii3GNa4foTsp91bmB88WZT4JcUsZn9H6/lniptgleRYpnf8BtMteuzgCdPfhxIqiKgU2B2dY/kPZsFmCgRSvoZaeOErK6W4TbB3GLo0WkpLfLr8csQgpgheSZrNmISODVIfzGEpUMNHZpND2dkBUnqMmtOJUubV6fWVbHt8T3SkoAkUu5TZJeehzJ/cR3zxgmunEWxqy3+C/AnvJ69GAVVkrNWSs70crv2gAUxI65AxnxNIaOu2Y8E7jhinGYTD3d72J0mhRyeIj7+V3KiilW6b3I595aS8yDHL2l/M902eTLs2S59IkEXVJDIjDazM6wGGRLu6ImjvZpiYp4ydA7mXQkyLzSS77aFlxrW5r3xGW2j18PAQLNCv5j2QV4Wj78wERRIbClUf2hy0hRYH1NHZk6q6C9nAaOUazVLR0jg2l+IbjPac5KTMUE9oPAHEbLs1huXXhUxbV0OzszKA2ofxUSPbVofDCZAmzBSzSBdOXCvWCzRxvLGt73wOw1uoXFIBT6FdNdouPkDl5O9bfqHS+bK4cKak3J49vDzxYvJWLCMbMkEA8TuBXVZfzMCY6LAzmjyJGCfUMpw/KIshuPOJDjUtiQEGxEN7CwXNmCi11c3XeVirpO5V0ps4uUKBoypQ85VvpI8AI2D/O6i6EpOjQ+SU+FZnCjfWuVxj0Xwco+eeCFAO9D0mNl8kdY7TLT8yYFLt0wnuj1EWRIbLB4pGxq8f2ZxjhYohVkoKCwGRi6Og5VQLMIUbPOEEoYCS/IswcXDJv0wWEJZADinzqfRr39wgyT8qXK2xyKjxhkv0R5H3TGYWE2u0AJCWkt9q9/dsDKKC8obw4qe0TSkGwYDgFEskHJf670V/K9pOVGKNRJZkocTl9lHxR9k9Yroes6Jtb6rJTBipA3cGXXFH8P/r8fFZRAJBJgWtYSBxYymgPPhlterl4ZXaZWTQzyd6JKW6r6YSG8HJiov4+RTlsEVTyriTLrfumOzNsbiUhUx1Dh0kfjy39C+5cxu3uB5Y2QnRY30wBq1Hxaq6UXNek4uWhEtoyX7CzS84570QKN8MV4LuwsZSrkVgNQ+KKFbfAPR6Ccd4NSkbKOAassH/w8ZCpQkUNiL/DLFIXvuyKZJi/UvbAM8PsutvXm2V03c1yu21dea0x4mGExvTWAxRBAmNH4vxPaQKzgNK65fmqD4pFz2EDuC8csFdIm85XyEH/xiOH/BWZxfvL9W6LCvwDTzanLRWpQYpTGQUnNI/QdCGZkcshAi+rFgSEVuOr+61RM3R2hGvkNtlXcFd8RTcu+2w45HLDUf+z1BEEkDwD9RKwCFbGkQzB6R//B0WKLtsub//cO0C5ACByoguaasLPOkRqidYAEd9GxjlyUi3q2KSYbyzEBGib70f3OTp/KGwKrS1jKDmHzAsBh6Q+jTZaSD/gUwC0BshtNGVx58W0bV3mwt2Actfcgke5nRFIcWVzHzPaF69FzujCzE6Tu4upBm4YWCNOHSfbiksJc9PfcVfHUFZTDif0L5ujd9K5DhguMnD9C0OkhMhxbKwnsvgoL73CJBeNJzAJCSKvs5AMAO0bHHFB1ywnLWNLz2AdY7hUA6Iw1QI8RpBf0uvvBINAdntveYbCN8DFHU6vxlPYqb0DerN5vFsbMQH/9NnsOM1BozoppdCrpYNRr/MLQbper9/rIKEJAt0pZVZI/cmCHgzualK/LHvw6c1YLSD5+Zf5I/2J7DNWDfxLdM70XpqA2khijRHgyQ0pLftiQxQ461DFZ90UeP7qYrbflRCqOTq/R+nzQkvOTuJqbII0y6dwY9UZy8hbhVBzQruWN917wAA3q+DTY+M/8s5yLkCReVCvRLx7VGuR32FdyBskyH88Xryp4SAmJFTwdgs4Cbj6hrm+hPANV2XHv0suyVNUPupmQHeYHAmRu4S4iPuQ01FDmpi4mD3tIODF68tIYJaWkaApsEGrxOW9foMjgvZeLGsJqioPLbBgMEsbHGmblf0MMHbwu6LRNHSW/Omp/fm//z8L7IuMMjd1w/XkHdrEgNxcvm8mFDPYRpFXIXUCpll+ANNiXfeGMVIaYSpqBw0vGFi1EzyX51IvQCUm38KSiTPeGyMaR6HmnSXL4trwQ1Fo8YfXoLn1GjdO5M+5czeHLRCmndbH00+B7ZdFYqX3AS0jmVgFRxUKIBNBR3WtXsuFLVFwQ/uRZBO+S97BZI0yd1aN7Fphf+rj6PO7+qQQ8QJg1GCoDXrcLvY3o1YZK6Tl7/hKPfGJzINeShNQi6T84gybMlog1COFozMa7P33nGr33nQAxXOiMGXN+jHBiTMiczgzSM+K7XxVDv3hGFqfgUv6NYvRl/ZRQ7J+hnE9sflCNFxIAB2N/U/n3Vdk8SiWDtrsSnjxZSvjXVSmqxgDTAFsxLvGLHhPY83HbeTfFafCUJYFOkwYkA2EE1+QVAEepCOAQFeMnFMwTXUqGHXvqTy5pk/XxGCk0o7xuYr6IS7TBImczuBe8PRbs1Gq4LZWmbGmPOE8oxLZVFZ3T+H6DtKzQrdtQSBHpujUMTW2z3jN/1E1sqh/Kcl5caSPbrIs6SJX7lZUQaxEzwxLedWlRz0jXOuLgzGNQzAj6H+MAho4+xtPuvzm3/RWC+FuOALq7ndhD2oTAQYK5YQb5Jd029tiyt99cO1r7a1B1RqwOpwRejjmZ+eQOXAhmK1i7T637XTk108ma8jfOKkuQmWCbmfs3hgCTQ2Pu+rEXc2JfRhgKuVQeXIziK2CMkCJUJgTVpYUkGIbNPvjmXxDgs2+hIQHgtTgmU97TDzjIPDUSPVlfXji3Ofyx6yuChrzhRVnmwq5TOdo3f2U0es17FW/XjraXRwm5yVGFWDIVvgN0diKYvgYeBCcqgNypOA4fRUSI/mRIzsrdkbLWqhqQ2I4MDHWYMkHCHwnz8ElinqO9geJt2jIkOkULbnx+fdZwVsr45GVJIzuhQvhXuTQspC9hNZH2YqdFcZcqtYX7hBPEuFd2fH6EoeVzl4O7Zr5GbnksW34+0BGlcbb78uwm6zVgLGm35AeX52zXz0M7J75o2TqgPOrKn25pFOTk0JIh1GVCw9xHjbQ+AvnnIMRn1bkRVwwgYuZCtFYZe7197Job0/o+bJVVCW+l1Ta2NIpNoYGBsSoIVekwSkSxb9do4oFTD5x5eWQaiJtEKR1yi5SWcZFHQhOgTuRQgk+UCep+fLkIRuJWfAJcsoDBhhhTCiR6KZisd3ER9XtH3oRKSC2qKYM3hofqB+10feMkGvhGRuHre7nvymxfD0t/ignStWOaAhnhFmkR8Yap2I0SYD87/SHFQ35dAQ/BNN9mWcOrn5WtADMPEyLAG8/yPizGW3ZaRhEF1zGiS0Dtsh0OsAvguQzRrXtq2jwcM37BhZhDo9JVHvuhrVQnNABmGW0LZt97petxMff0XKl0LFrkNYTIBjM0Bbj0uK2svEWSFyjZIHTcxmDohupgcPIxLQoakuMVsz/Rf4B78MgJ45Hrdp6hdvq7NlRX+t1WzpyKgAapN5dVVCEeHgbXgmbAzeYXhNVTnguf4jUvors/8ANZuBygkADKoNWHgyOSiwc0LoWAP8M/q/3gXleTt4r69mrYquErH1GSZBzQtLjDTO9jbsgTydAC1MLHpkcQcTr7kbxF8EGZ3zbJu0h4B2EurN0OPaTGtvEvz1R3738IQn9yiFdq88y0sbETMnP41lAFFX7jA25z1C/PQDIP3heQwhxclBAJ/jDtHKDkaQjzrTcBxp7irf6vRnZy/6pRP5ebThlvAy3B3aXHr777c2K5ZSdyYqPT2BlHQAZs5oU4T0od9n9X/jLHXTfPfmzXyP1x95d9wWQ4zhFNXcwZ+SUzcx1SRfySNy5t4xNHPckOhuoQmyqKsSdQbHwYgk5YGjDHAI4xYhGG5DPfUWIt/ETlz6beUPi/HLT4x7ERaW9uICAUVNOCg1gJ99i4gwcqkUmoSegddd8PDdgxYXebPeiCMineAETwL80PhW4nA0jzh7UOm6p8goBfrigntTTWVgPGQ5QadP+YIlLK1ShPOxsI64VQDqxepjLbE6s7bbaiD2F2Ri+8kweO8Niw8UnHQHdee7c0SW1z6gCm2n1GMZYBe27tUOhVD/ksuFYCeyKrep7PyKiQMVHJGiyibaVhnTPnCm3zWVtJBFQyRpRiGTYXeB8osfeS0QHFaJHzoy1kYFGSd2+T6HgO+YM56T8A2eoEnYI6gCWkk8WXRwjxFZmzkA0I9s9ZfHfJO/rylUk/JoSJUCIXCh5vcZjoIV7bXJC9iDZUNt5mlk1CHM1qHP4eNRoT+z9AUtjs7SSYCX9iyUrA+inNUsS4yohQa0PaXPuP6v3E9/bCiH0po3GoKSyJxXeyUsznK+vRl5Q4vtL5R0tI7n2q9TzeFcaeZDNJH7juvxven30lmFKjlFqk/uuxj3KU2RXBR6XuCy4IdIl+XqnsrRb9ZehD7Hte0n6PY06iGkJ/GiSa1x7OGzun2ZxmA5rXIB2S5uHQ8N8mbQ6qDU+2ct/7AuuhMfequMFVF38xsNqN9NSlZ/OlRVexbknb7LQKJAQPFWW1z62A2yRqncyTLCTkqhZUxBphdK+y8KnvmQ3PCxHntsse7pZJlapok7dUOZ3RfR9Al0fUjkQQrrRh0okpLxBppgvNcvD50PQz5JdWdSW/pGLC6BMzvNSxLRgM/Jv1K1TjfGe5BcCNqUinqC6o2MhLCT+aDwkn//xX4vllS4GAZs37ZGB+Xks6kVBMXBH5ALRydyyZeZ6vosr4TSfPhjjMQcIi9/lqlpbOCDWkjXovcgO1+URGib72YD8JEh7JwmYqv4xwP8nLoWXzzgapTvRnIfPW+uZTqY4y92/z3SheJhDeZJ+n2mOl4osNLYD+5xmKNniS9+qDNxI/9jw3eAwydcEeqqpWojJsYEfbhRkaWl9F6xmrbl7l0cnPnmVdZLvYm1T4PIRS6cQqMRmY+abLD3sQsVHZ3HkGylVRDlk4OH+DVeo8zXtMZYhonx1G/UdozHSlB1cyim3kAa/T1CdE3pb+pBkcRoYu6K5mGFJcsoGwjvk0od+0k1wRrr2eweUQKe35AQfsreUT5jEfOUsjd0aqchrQi4jSTpKnBCBsuQWbhfkmI/S9txJJIXV7mPaRmQ2iAdqwaJ/CNXSJ64WJdkWeZCe+gUpb4qzGCntPrkTOwSEHnZANJKBwHFzDKWaefhAu48Jt5ElNMtND5ThUI8U7MmFTag5RLxXJtxbLZqXY0OdcGJV4IcQEYBDtr5uDT/w6kTmPW/UENsF4Qy/rmfQCCNU9ETZv37+Ki3a04hZPAxmYX1HJeYuiJfKXnWZ/WR0Z51NwNJEr1/0UhVdRitAfA9pNtRjG+4lqj2HQs4mmf2NIjgONuKavN1GGLuXmFH8lrZTY1CEo/HKzrnKuega3AEj8KASCttHwIxa3AeZ+7xOXl4fJnhV2sNVPwq8PsG+GtEeo3rE9kk59bLQRFz/VQRluRJC4VRrmDjD/lDZ6uLh2My6tODwtCezO5/5M9YpxLtfpwIgi6FVumqwV5nY7+ExEfhn6wRS121MJYKaMmWvQTU3d0qoo3WMXf0byO1p0g8+osjUxwKWbyMJU4x7uSsFFUVtKvcjRRBnNOYP1rD8/od+JMLnj5hqLzrCaP89dv6jX6e4TQQ01xyO7RimVAboQeSO5HnwIaLItjEK4lbzi4UO7y/BiAlo2IGNFGWSmlzN5NGf+vtUcR2A+RLpD5EoXZXv1CvIO0ugs8kxGB2pRyVsDMyO/Zn5+wbGOwwR6bEex6oUUtSLQ089+VvyLNOZ9Nq/5WAZMBd7kG50tTcr/koR6hOp9GmAVpW2o9KOap90/Qf52bsv92A5vocWXFOhhxCpHkGIsD8HDGJ8nMJ5slKonuBMboCpaO9bncRpC59wHlOk3dhICffygkEPV7YOJM3dqKDS4AINpTXznKWMYande8AVS7dMXc61xA90g2G2IlCHgKWfa6GpxPmYCcMn/s2Dylg+w/6MIiklCVeDHbtkEajosf95DBVQCv3Hycao51L0WEhuvhciwF96Ka/7NIhVmVSvzFfLFNXm68bGYnnM3CWgxjw5lsR1nwp3IGvgeDFXV/Tywnoz4tY84V4VBaOGVfNrXlwLBITjKhjSxEA9kOXgDzoL38/snLBt8ub1Tdl5xMGIVnKmrx7LodPCOOSYBQNByon/zS1jk/vew5yq2bpx6oSIKUawA7uOD8M0ei0l86wP0aKyjo40s5n3SRtb9tOrvu7CE1j7zD+7lRjXUAQpNDFKIXSCGpfSgwGKRRb4vO4R7ABuv/W3tFnEYd4qoKtra2tmYpEEFHKEGa0gHgr5oFAB7Z4SPqz5l2gqOHCwa4UXqjgekUT8Ygng1AkJFqnZqM/XftMmKy97kie4T948bXaAT/SmoBn7fsZ/wHMpXMfI8cf+LNxb0XXiQ2JF3WvgJACywjMAJ1o1StfznCMbCUidK+EKFH+uAcrJ6E8ML204U5bGko4H2DMrC+i2q3/xabBwKz0f+yzJaEbruLHYok8i6O32xe9bzWp9U5vpf8pHucMAAC22rcEuwg2St+rzRxxDubcYg35CJsuN2RZm2wZxlXhXTTWboVkyOBvji2MTFEQHv7MVswzfA5VIM078CGJ15CO3j3hvqC3QDQEWwFIBRMkk8AmcLw3Yc3mvihE2/klvdLgqfuTtQieQdAtTkstHS5diyGQdPntTzPFNHqITn+O68oMAAAAAAAAAAAAL0Ye1RmweuOVX+HF17ZkTdSeJ7KwRAQpH1VP6XAkmK8DyvN9tEajRuytAaL/y0MWxLHD3QHt3Loukuf4OD7HiWk58G41WiXidY8f3h4dPkT6WnbVP4ECOSHNhFEGLWsN8FYGXCXaOb1O8SkSyTS17Yb0RjcAAAw/N7E6sMJVSNsxS5PdoTn5I/7Cl9O9oYKONjZoccnFFMc7lCiy0EoPaGAYOKjc154FncVNbn3O1Ro8hM/3EQpHTy7pK59l71iEfjr752Ks4Lz1SxbZJDYfrzUTu87RtzEqJH2+EDpbuPGekPq35i9geRiQADPA0ZnCVQNdJDtNVXcx+k/2HPUzUig8Zc5+MKZw3NN80/1jcq5FO3yGHPUnkVbUCWKICg3QOOoZlJVkDWT78SP9UN6+Srli0gesN31lhjaeJ3K4CFKb2mDQbXljE1Sp+2tDcub1TLWGZV3bcQx4E/e64iTbBupbK7YKB1jTACdhCFZ0euTSNG2aQ3rt16Z3i/ccAA5W6GHQ9sPOefbwo/KH/Pz4SDb1cKMroTczJ/npVvub7x/2a/DldGqPY+R3xVhcx2lyT9DcEGUbVIf/zmsMTKRzVnZNvYq4W8RD2p4ick1QfkDxpMI9wt0JzNkuJIIQhic7fPJt9sYKbYxB+5cgwHPWPQxefabeTZ5jfctwxZwNINkwSFfeoAAH34c6i7Nq8QanUv48ynEUzHcw8buf0b9VM/o5cDbCGnMwFtBqLJhI3nCvthB3AmfVLZk9QxddMEvTgaZwnvn4Tp0D9Nb09EEInAAAAijS6pjo4aZdjzh41G+ynPzu4Wa8/e1DJLl1dwIhvj2BDf4rM8Wp2n4jh/q4HVyPKkA+HB5o2Cuemo+WgAAAAAAAAAAAAAAAAAAAAEVYSUa6AAAARXhpZgAASUkqAAgAAAAGABIBAwABAAAAAQAAABoBBQABAAAAVgAAABsBBQABAAAAXgAAACgBAwABAAAAAgAAABMCAwABAAAAAQAAAGmHBAABAAAAZgAAAAAAAABIAAAAAQAAAEgAAAABAAAABgAAkAcABAAAADAyMTABkQcABAAAAAECAwAAoAcABAAAADAxMDABoAMAAQAAAP//AAACoAQAAQAAAK8EAAADoAQAAQAAAKUBAAAAAAAAWE1QINsAAAA8P3hwYWNrZXQgYmVnaW49IiIgaWQ9Ilc1TTBNcENlaGlIenJlU3pOVGN6a2M5ZCI/Pgo8eDp4bXBtZXRhIHhtbG5zOng9ImFkb2JlOm5zOm1ldGEvIiB4OnhtcHRrPSJHbyBYTVAgU0RLIDEuMCI+PHJkZjpSREYgeG1sbnM6cmRmPSJodHRwOi8vd3d3LnczLm9yZy8xOTk5LzAyLzIyLXJkZi1zeW50YXgtbnMjIj48L3JkZjpSREY+PC94OnhtcG1ldGE+Cjw/eHBhY2tldCBlbmQ9InciPz4A;clipPath=inset(11.9% 70% 12.86% 4% round 5%);rounded=0;" parent="18IOrFxBGaxqaIelFwtQ-13" vertex="1">
          <mxGeometry x="60" y="38.85000000000002" width="90" height="91.15" as="geometry" />
        </mxCell>
        <mxCell id="9ZaJt1_ey6kXlcGl8Kuq-16" value="" style="edgeStyle=orthogonalEdgeStyle;rounded=0;hachureGap=4;orthogonalLoop=1;jettySize=auto;html=1;fontFamily=Architects Daughter;fontSource=https%3A%2F%2Ffonts.googleapis.com%2Fcss%3Ffamily%3DArchitects%2BDaughter;entryX=1;entryY=0.5;entryDx=0;entryDy=0;" parent="18IOrFxBGaxqaIelFwtQ-13" source="9ZaJt1_ey6kXlcGl8Kuq-14" target="9ZaJt1_ey6kXlcGl8Kuq-15" edge="1">
          <mxGeometry relative="1" as="geometry">
            <Array as="points">
              <mxPoint x="130" y="275" />
            </Array>
          </mxGeometry>
        </mxCell>
        <mxCell id="9ZaJt1_ey6kXlcGl8Kuq-14" value="Train model" style="rounded=0;whiteSpace=wrap;html=1;hachureGap=4;fontFamily=Verdana;" parent="18IOrFxBGaxqaIelFwtQ-13" vertex="1">
          <mxGeometry x="50" y="210" width="100" height="30" as="geometry" />
        </mxCell>
        <mxCell id="9ZaJt1_ey6kXlcGl8Kuq-18" value="" style="edgeStyle=orthogonalEdgeStyle;rounded=0;hachureGap=4;orthogonalLoop=1;jettySize=auto;html=1;fontFamily=Architects Daughter;fontSource=https%3A%2F%2Ffonts.googleapis.com%2Fcss%3Ffamily%3DArchitects%2BDaughter;" parent="18IOrFxBGaxqaIelFwtQ-13" source="9ZaJt1_ey6kXlcGl8Kuq-15" target="9ZaJt1_ey6kXlcGl8Kuq-17" edge="1">
          <mxGeometry relative="1" as="geometry" />
        </mxCell>
        <mxCell id="9ZaJt1_ey6kXlcGl8Kuq-15" value="&lt;font face=&quot;Verdana&quot;&gt;Evaluate model&lt;/font&gt;" style="rounded=0;whiteSpace=wrap;html=1;hachureGap=4;fontFamily=Architects Daughter;fontSource=https%3A%2F%2Ffonts.googleapis.com%2Fcss%3Ffamily%3DArchitects%2BDaughter;" parent="18IOrFxBGaxqaIelFwtQ-13" vertex="1">
          <mxGeometry x="10" y="260" width="100" height="30" as="geometry" />
        </mxCell>
        <mxCell id="9ZaJt1_ey6kXlcGl8Kuq-17" value="&lt;font&gt;Save model&lt;/font&gt;" style="rounded=0;whiteSpace=wrap;html=1;hachureGap=4;fontFamily=Verdana;" parent="18IOrFxBGaxqaIelFwtQ-13" vertex="1">
          <mxGeometry x="30" y="339" width="100" height="30" as="geometry" />
        </mxCell>
        <mxCell id="l5XGKFsh0KQZhv6o5uQi-32" value="" style="shape=flexArrow;endArrow=classic;html=1;rounded=1;hachureGap=4;fontFamily=Architects Daughter;fontSource=https%3A%2F%2Ffonts.googleapis.com%2Fcss%3Ffamily%3DArchitects%2BDaughter;flowAnimation=1;strokeWidth=4;width=50;verticalAlign=middle;" parent="18IOrFxBGaxqaIelFwtQ-13" edge="1">
          <mxGeometry width="50" height="50" relative="1" as="geometry">
            <mxPoint x="-60" y="69" as="sourcePoint" />
            <mxPoint x="50" y="69" as="targetPoint" />
          </mxGeometry>
        </mxCell>
        <mxCell id="l5XGKFsh0KQZhv6o5uQi-33" value="&lt;span style=&quot;font-family: Verdana; font-size: 12px; text-wrap: wrap; background-color: rgb(251, 251, 251);&quot;&gt;Data or Feature Engineering&lt;/span&gt;" style="edgeLabel;html=1;align=center;verticalAlign=middle;resizable=0;points=[];sketch=1;hachureGap=4;jiggle=2;curveFitting=1;fontFamily=Architects Daughter;fontSource=https%3A%2F%2Ffonts.googleapis.com%2Fcss%3Ffamily%3DArchitects%2BDaughter;" parent="l5XGKFsh0KQZhv6o5uQi-32" vertex="1" connectable="0">
          <mxGeometry y="11" relative="1" as="geometry">
            <mxPoint y="11" as="offset" />
          </mxGeometry>
        </mxCell>
        <mxCell id="18IOrFxBGaxqaIelFwtQ-14" value="ML Pipeline" style="swimlane;startSize=20;hachureGap=4;fontFamily=Verdana;fontSize=14;rounded=0;" parent="18IOrFxBGaxqaIelFwtQ-10" vertex="1">
          <mxGeometry x="580" width="190" height="549" as="geometry" />
        </mxCell>
        <mxCell id="9ZaJt1_ey6kXlcGl8Kuq-19" value="Git repo" style="verticalLabelPosition=bottom;html=1;verticalAlign=top;align=center;strokeColor=none;fillColor=#00BEF2;shape=mxgraph.azure.git_repository;hachureGap=4;fontFamily=Architects Daughter;fontSource=https%3A%2F%2Ffonts.googleapis.com%2Fcss%3Ffamily%3DArchitects%2BDaughter;rounded=0;" parent="18IOrFxBGaxqaIelFwtQ-14" vertex="1">
          <mxGeometry x="30" y="30" width="50" height="50" as="geometry" />
        </mxCell>
        <mxCell id="BfBG_LyYBdXH_Td8mh9d-7" style="edgeStyle=orthogonalEdgeStyle;rounded=0;hachureGap=4;orthogonalLoop=1;jettySize=auto;html=1;fontFamily=Architects Daughter;fontSource=https%3A%2F%2Ffonts.googleapis.com%2Fcss%3Ffamily%3DArchitects%2BDaughter;" parent="18IOrFxBGaxqaIelFwtQ-14" source="BfBG_LyYBdXH_Td8mh9d-2" target="BfBG_LyYBdXH_Td8mh9d-8" edge="1">
          <mxGeometry relative="1" as="geometry">
            <mxPoint x="120" y="185" as="targetPoint" />
          </mxGeometry>
        </mxCell>
        <mxCell id="BfBG_LyYBdXH_Td8mh9d-2" value="Flask/Fast App" style="rounded=0;whiteSpace=wrap;html=1;hachureGap=4;fontFamily=Architects Daughter;fontSource=https%3A%2F%2Ffonts.googleapis.com%2Fcss%3Ffamily%3DArchitects%2BDaughter;" parent="18IOrFxBGaxqaIelFwtQ-14" vertex="1">
          <mxGeometry x="70" y="110" width="100" height="30" as="geometry" />
        </mxCell>
        <mxCell id="BfBG_LyYBdXH_Td8mh9d-3" style="edgeStyle=orthogonalEdgeStyle;rounded=0;hachureGap=4;orthogonalLoop=1;jettySize=auto;html=1;entryX=1;entryY=0.5;entryDx=0;entryDy=0;entryPerimeter=0;fontFamily=Architects Daughter;fontSource=https%3A%2F%2Ffonts.googleapis.com%2Fcss%3Ffamily%3DArchitects%2BDaughter;endArrow=none;endFill=0;startArrow=classic;startFill=1;" parent="18IOrFxBGaxqaIelFwtQ-14" source="BfBG_LyYBdXH_Td8mh9d-2" target="9ZaJt1_ey6kXlcGl8Kuq-19" edge="1">
          <mxGeometry relative="1" as="geometry" />
        </mxCell>
        <mxCell id="BfBG_LyYBdXH_Td8mh9d-8" value="" style="image;sketch=0;aspect=fixed;html=1;points=[];align=center;fontSize=12;image=img/lib/mscae/Docker.svg;hachureGap=4;jiggle=2;curveFitting=1;fontFamily=Architects Daughter;fontSource=https%3A%2F%2Ffonts.googleapis.com%2Fcss%3Ffamily%3DArchitects%2BDaughter;rounded=0;" parent="18IOrFxBGaxqaIelFwtQ-14" vertex="1">
          <mxGeometry x="95" y="190" width="50" height="41" as="geometry" />
        </mxCell>
        <mxCell id="l5XGKFsh0KQZhv6o5uQi-6" value="&lt;font face=&quot;Verdana&quot;&gt;K8S&lt;/font&gt;" style="aspect=fixed;sketch=0;html=1;dashed=0;whitespace=wrap;verticalLabelPosition=bottom;verticalAlign=top;fillColor=#2875E2;strokeColor=#ffffff;points=[[0.005,0.63,0],[0.1,0.2,0],[0.9,0.2,0],[0.5,0,0],[0.995,0.63,0],[0.72,0.99,0],[0.5,1,0],[0.28,0.99,0]];shape=mxgraph.kubernetes.icon2;prIcon=pod;hachureGap=4;jiggle=2;curveFitting=1;fontFamily=Architects Daughter;fontSource=https%3A%2F%2Ffonts.googleapis.com%2Fcss%3Ffamily%3DArchitects%2BDaughter;" parent="18IOrFxBGaxqaIelFwtQ-14" vertex="1">
          <mxGeometry x="50" y="290" width="50" height="48" as="geometry" />
        </mxCell>
        <mxCell id="l5XGKFsh0KQZhv6o5uQi-7" style="edgeStyle=orthogonalEdgeStyle;rounded=0;hachureGap=4;orthogonalLoop=1;jettySize=auto;html=1;entryX=0.42;entryY=0.083;entryDx=0;entryDy=0;entryPerimeter=0;fontFamily=Architects Daughter;fontSource=https%3A%2F%2Ffonts.googleapis.com%2Fcss%3Ffamily%3DArchitects%2BDaughter;" parent="18IOrFxBGaxqaIelFwtQ-14" source="BfBG_LyYBdXH_Td8mh9d-8" target="l5XGKFsh0KQZhv6o5uQi-6" edge="1">
          <mxGeometry relative="1" as="geometry" />
        </mxCell>
        <mxCell id="l5XGKFsh0KQZhv6o5uQi-8" value="deploy" style="edgeLabel;html=1;align=center;verticalAlign=middle;resizable=0;points=[];sketch=1;hachureGap=4;jiggle=2;curveFitting=1;fontFamily=Architects Daughter;fontSource=https%3A%2F%2Ffonts.googleapis.com%2Fcss%3Ffamily%3DArchitects%2BDaughter;" parent="l5XGKFsh0KQZhv6o5uQi-7" vertex="1" connectable="0">
          <mxGeometry x="-0.1857" y="-3" relative="1" as="geometry">
            <mxPoint as="offset" />
          </mxGeometry>
        </mxCell>
        <mxCell id="l5XGKFsh0KQZhv6o5uQi-9" value="" style="html=1;overflow=block;blockSpacing=1;whiteSpace=wrap;shape=image;fontSize=13;spacing=3.8;strokeColor=none;strokeOpacity=100;strokeWidth=0;image=https://images.lucid.app/images/52cc69bb-3f9e-484b-9af7-0c703a3eddeb/content;lucidId=vhMLYhU9fBbT;clipPath=inset(26.64% 10% 24.3% 9.67%);aspect=fixed;" parent="18IOrFxBGaxqaIelFwtQ-14" vertex="1">
          <mxGeometry x="50" y="390" width="119" height="51.84647302904565" as="geometry" />
        </mxCell>
        <mxCell id="l5XGKFsh0KQZhv6o5uQi-10" style="edgeStyle=orthogonalEdgeStyle;rounded=0;hachureGap=4;orthogonalLoop=1;jettySize=auto;html=1;entryX=0.546;entryY=-0.039;entryDx=0;entryDy=0;entryPerimeter=0;fontFamily=Architects Daughter;fontSource=https%3A%2F%2Ffonts.googleapis.com%2Fcss%3Ffamily%3DArchitects%2BDaughter;" parent="18IOrFxBGaxqaIelFwtQ-14" source="l5XGKFsh0KQZhv6o5uQi-6" target="l5XGKFsh0KQZhv6o5uQi-9" edge="1">
          <mxGeometry relative="1" as="geometry" />
        </mxCell>
        <mxCell id="l5XGKFsh0KQZhv6o5uQi-20" value="" style="shape=flexArrow;endArrow=classic;html=1;rounded=1;hachureGap=4;fontFamily=Architects Daughter;fontSource=https%3A%2F%2Ffonts.googleapis.com%2Fcss%3Ffamily%3DArchitects%2BDaughter;strokeWidth=4;width=50;align=center;textDirection=ltr;labelPosition=right;verticalLabelPosition=middle;verticalAlign=middle;spacing=4;shadow=0;flowAnimation=1;" parent="18IOrFxBGaxqaIelFwtQ-14" edge="1">
          <mxGeometry width="50" height="50" relative="1" as="geometry">
            <mxPoint x="310" y="499" as="sourcePoint" />
            <mxPoint x="-220" y="499" as="targetPoint" />
            <Array as="points">
              <mxPoint x="-130" y="499" />
            </Array>
          </mxGeometry>
        </mxCell>
        <mxCell id="l5XGKFsh0KQZhv6o5uQi-24" value="&lt;font style=&quot;font-size: 24px;&quot; face=&quot;Verdana&quot;&gt;Accuracy drift&lt;/font&gt;" style="edgeLabel;html=1;align=center;verticalAlign=middle;resizable=0;points=[];sketch=1;hachureGap=4;jiggle=2;curveFitting=1;fontFamily=Architects Daughter;fontSource=https%3A%2F%2Ffonts.googleapis.com%2Fcss%3Ffamily%3DArchitects%2BDaughter;" parent="l5XGKFsh0KQZhv6o5uQi-20" vertex="1" connectable="0">
          <mxGeometry x="-0.3245" y="4" relative="1" as="geometry">
            <mxPoint x="-76" y="-4" as="offset" />
          </mxGeometry>
        </mxCell>
        <mxCell id="BfBG_LyYBdXH_Td8mh9d-4" style="edgeStyle=orthogonalEdgeStyle;rounded=0;hachureGap=4;orthogonalLoop=1;jettySize=auto;html=1;entryX=0;entryY=0.5;entryDx=0;entryDy=0;fontFamily=Architects Daughter;fontSource=https%3A%2F%2Ffonts.googleapis.com%2Fcss%3Ffamily%3DArchitects%2BDaughter;startArrow=classic;startFill=1;endArrow=none;endFill=0;" parent="18IOrFxBGaxqaIelFwtQ-10" source="9ZaJt1_ey6kXlcGl8Kuq-17" target="BfBG_LyYBdXH_Td8mh9d-2" edge="1">
          <mxGeometry relative="1" as="geometry" />
        </mxCell>
        <mxCell id="BfBG_LyYBdXH_Td8mh9d-5" value="model" style="edgeLabel;html=1;align=center;verticalAlign=middle;resizable=0;points=[];sketch=1;hachureGap=4;jiggle=2;curveFitting=1;fontFamily=Architects Daughter;fontSource=https%3A%2F%2Ffonts.googleapis.com%2Fcss%3Ffamily%3DArchitects%2BDaughter;rounded=0;" parent="BfBG_LyYBdXH_Td8mh9d-4" vertex="1" connectable="0">
          <mxGeometry x="0.1931" y="1" relative="1" as="geometry">
            <mxPoint as="offset" />
          </mxGeometry>
        </mxCell>
        <mxCell id="TZKYVmtA_0dDknvJQn4o-1" value="Monitor" style="swimlane;startSize=20;hachureGap=4;fontFamily=Verdana;fontSize=14;rounded=0;" parent="18IOrFxBGaxqaIelFwtQ-10" vertex="1">
          <mxGeometry x="770" width="270" height="549" as="geometry" />
        </mxCell>
        <mxCell id="l5XGKFsh0KQZhv6o5uQi-11" value="&lt;font face=&quot;Verdana&quot;&gt;Monitor&lt;/font&gt;" style="sketch=0;points=[[0,0,0],[0.25,0,0],[0.5,0,0],[0.75,0,0],[1,0,0],[0,1,0],[0.25,1,0],[0.5,1,0],[0.75,1,0],[1,1,0],[0,0.25,0],[0,0.5,0],[0,0.75,0],[1,0.25,0],[1,0.5,0],[1,0.75,0]];points=[[0,0,0],[0.25,0,0],[0.5,0,0],[0.75,0,0],[1,0,0],[0,1,0],[0.25,1,0],[0.5,1,0],[0.75,1,0],[1,1,0],[0,0.25,0],[0,0.5,0],[0,0.75,0],[1,0.25,0],[1,0.5,0],[1,0.75,0]];outlineConnect=0;fontColor=#232F3E;fillColor=#E7157B;strokeColor=#ffffff;dashed=0;verticalLabelPosition=bottom;verticalAlign=top;align=center;html=1;fontSize=12;fontStyle=0;aspect=fixed;shape=mxgraph.aws4.resourceIcon;resIcon=mxgraph.aws4.personal_health_dashboard;hachureGap=4;jiggle=2;curveFitting=1;fontFamily=Architects Daughter;fontSource=https%3A%2F%2Ffonts.googleapis.com%2Fcss%3Ffamily%3DArchitects%2BDaughter;" parent="TZKYVmtA_0dDknvJQn4o-1" vertex="1">
          <mxGeometry x="50" y="36" width="78" height="78" as="geometry" />
        </mxCell>
        <mxCell id="l5XGKFsh0KQZhv6o5uQi-12" value="&lt;font face=&quot;Verdana&quot;&gt;Metrics&lt;/font&gt;" style="image;aspect=fixed;html=1;points=[];align=center;fontSize=12;image=img/lib/azure2/management_governance/Metrics.svg;sketch=1;hachureGap=4;jiggle=2;curveFitting=1;fontFamily=Architects Daughter;fontSource=https%3A%2F%2Ffonts.googleapis.com%2Fcss%3Ffamily%3DArchitects%2BDaughter;" parent="TZKYVmtA_0dDknvJQn4o-1" vertex="1">
          <mxGeometry x="160" y="256" width="64" height="68" as="geometry" />
        </mxCell>
        <mxCell id="l5XGKFsh0KQZhv6o5uQi-13" value="&lt;font face=&quot;Verdana&quot;&gt;Observability&lt;/font&gt;" style="sketch=0;outlineConnect=0;fontColor=#232F3E;gradientColor=none;fillColor=#E7157B;strokeColor=none;dashed=0;verticalLabelPosition=bottom;verticalAlign=top;align=center;html=1;fontSize=12;fontStyle=0;aspect=fixed;pointerEvents=1;shape=mxgraph.aws4.cloudwatch_cross_account_observability;hachureGap=4;jiggle=2;curveFitting=1;fontFamily=Architects Daughter;fontSource=https%3A%2F%2Ffonts.googleapis.com%2Fcss%3Ffamily%3DArchitects%2BDaughter;" parent="TZKYVmtA_0dDknvJQn4o-1" vertex="1">
          <mxGeometry x="32" y="172" width="78" height="78" as="geometry" />
        </mxCell>
        <mxCell id="l5XGKFsh0KQZhv6o5uQi-14" style="edgeStyle=orthogonalEdgeStyle;rounded=0;hachureGap=4;orthogonalLoop=1;jettySize=auto;html=1;entryX=0.688;entryY=0.059;entryDx=0;entryDy=0;entryPerimeter=0;fontFamily=Architects Daughter;fontSource=https%3A%2F%2Ffonts.googleapis.com%2Fcss%3Ffamily%3DArchitects%2BDaughter;" parent="TZKYVmtA_0dDknvJQn4o-1" source="l5XGKFsh0KQZhv6o5uQi-13" target="l5XGKFsh0KQZhv6o5uQi-12" edge="1">
          <mxGeometry relative="1" as="geometry" />
        </mxCell>
        <mxCell id="l5XGKFsh0KQZhv6o5uQi-18" value="&lt;font face=&quot;Verdana&quot;&gt;why &amp;amp; how&lt;/font&gt;" style="edgeLabel;html=1;align=center;verticalAlign=middle;resizable=0;points=[];sketch=1;hachureGap=4;jiggle=2;curveFitting=1;fontFamily=Architects Daughter;fontSource=https%3A%2F%2Ffonts.googleapis.com%2Fcss%3Ffamily%3DArchitects%2BDaughter;" parent="l5XGKFsh0KQZhv6o5uQi-14" vertex="1" connectable="0">
          <mxGeometry x="-0.4656" y="4" relative="1" as="geometry">
            <mxPoint as="offset" />
          </mxGeometry>
        </mxCell>
        <mxCell id="l5XGKFsh0KQZhv6o5uQi-16" value="&lt;font face=&quot;Verdana&quot;&gt;Alert&lt;/font&gt;" style="sketch=0;pointerEvents=1;shadow=0;dashed=0;html=1;strokeColor=none;labelPosition=center;verticalLabelPosition=bottom;verticalAlign=top;align=center;fillColor=#505050;shape=mxgraph.mscae.oms.alerts;hachureGap=4;jiggle=2;curveFitting=1;fontFamily=Architects Daughter;fontSource=https%3A%2F%2Ffonts.googleapis.com%2Fcss%3Ffamily%3DArchitects%2BDaughter;" parent="TZKYVmtA_0dDknvJQn4o-1" vertex="1">
          <mxGeometry x="200" y="106" width="41" height="50" as="geometry" />
        </mxCell>
        <mxCell id="l5XGKFsh0KQZhv6o5uQi-17" style="edgeStyle=orthogonalEdgeStyle;rounded=0;hachureGap=4;orthogonalLoop=1;jettySize=auto;html=1;entryX=0.366;entryY=0.18;entryDx=0;entryDy=0;entryPerimeter=0;fontFamily=Architects Daughter;fontSource=https%3A%2F%2Ffonts.googleapis.com%2Fcss%3Ffamily%3DArchitects%2BDaughter;" parent="TZKYVmtA_0dDknvJQn4o-1" source="l5XGKFsh0KQZhv6o5uQi-11" target="l5XGKFsh0KQZhv6o5uQi-16" edge="1">
          <mxGeometry relative="1" as="geometry" />
        </mxCell>
        <mxCell id="l5XGKFsh0KQZhv6o5uQi-19" value="&lt;font face=&quot;Verdana&quot;&gt;when &amp;amp; what&lt;/font&gt;" style="edgeLabel;html=1;align=center;verticalAlign=middle;resizable=0;points=[];sketch=1;hachureGap=4;jiggle=2;curveFitting=1;fontFamily=Architects Daughter;fontSource=https%3A%2F%2Ffonts.googleapis.com%2Fcss%3Ffamily%3DArchitects%2BDaughter;" parent="l5XGKFsh0KQZhv6o5uQi-17" vertex="1" connectable="0">
          <mxGeometry x="-0.1339" y="1" relative="1" as="geometry">
            <mxPoint as="offset" />
          </mxGeometry>
        </mxCell>
        <mxCell id="fBvspUXEwRoK4l-hfZGB-3" value="" style="shape=flexArrow;endArrow=classic;html=1;rounded=1;hachureGap=4;fontFamily=Architects Daughter;fontSource=https%3A%2F%2Ffonts.googleapis.com%2Fcss%3Ffamily%3DArchitects%2BDaughter;strokeWidth=4;width=50;align=center;textDirection=ltr;labelPosition=right;verticalLabelPosition=middle;verticalAlign=middle;spacing=4;shadow=0;flowAnimation=1;" parent="TZKYVmtA_0dDknvJQn4o-1" edge="1">
          <mxGeometry width="50" height="50" relative="1" as="geometry">
            <mxPoint x="90" y="339" as="sourcePoint" />
            <mxPoint x="-40" y="339" as="targetPoint" />
            <Array as="points">
              <mxPoint x="50" y="339" />
            </Array>
          </mxGeometry>
        </mxCell>
        <mxCell id="fBvspUXEwRoK4l-hfZGB-4" value="&lt;font style=&quot;font-size: 24px;&quot; face=&quot;Verdana&quot;&gt;trail&lt;/font&gt;" style="edgeLabel;html=1;align=center;verticalAlign=middle;resizable=0;points=[];sketch=1;hachureGap=4;jiggle=2;curveFitting=1;fontFamily=Architects Daughter;fontSource=https%3A%2F%2Ffonts.googleapis.com%2Fcss%3Ffamily%3DArchitects%2BDaughter;" parent="fBvspUXEwRoK4l-hfZGB-3" vertex="1" connectable="0">
          <mxGeometry x="-0.3245" y="4" relative="1" as="geometry">
            <mxPoint x="-16" y="-4" as="offset" />
          </mxGeometry>
        </mxCell>
        <mxCell id="9ZaJt1_ey6kXlcGl8Kuq-6" value="&lt;b&gt;DataOps&lt;/b&gt;" style="rounded=0;whiteSpace=wrap;html=1;hachureGap=4;fontFamily=Verdana;" parent="1" vertex="1">
          <mxGeometry x="90" y="90" width="420" height="30" as="geometry" />
        </mxCell>
        <mxCell id="9ZaJt1_ey6kXlcGl8Kuq-7" value="&lt;b&gt;MLOps&lt;/b&gt;" style="rounded=0;whiteSpace=wrap;html=1;hachureGap=4;fontFamily=Verdana;" parent="1" vertex="1">
          <mxGeometry x="470" y="90" width="570" height="30" as="geometry" />
        </mxCell>
      </root>
    </mxGraphModel>
  </diagram>
</mxfile>
